emandoz presents:

Artificial Intelligence AI [Eng,Ger,Spa] [emandoz 1-gig rip]



Artificial Intelligence AI
Audio: English, German
Subs included
Source: PAL DVD

--------------------------------------------------------------------
Artificial Intelligence AI (2001)

Video
ID                               : 1
Format                           : AVC
Format/Info                      : Advanced Video Codec
Format profile                   : High@L3.0
Format settings, CABAC           : Yes
Format settings, ReFrames        : 3 frames
Muxing mode                      : Container profile=Unknown@3.0
Codec ID                         : V_MPEG4/ISO/AVC
Duration                         : 2h 19mn
Bit rate                         : 651 Kbps
Nominal bit rate                 : 655 Kbps
Width                            : 608 pixels
Height                           : 480 pixels
Display aspect ratio             : 16/9
Frame rate                       : 25.000 fps
Resolution                       : 24 bits
Colorimetry                      : 4:2:0
Scan type                        : Progressive
Bits/(Pixel*Frame)               : 0.089
Stream size                      : 651 MiB (65%)
Writing library                  : x264 core 65
Encoding settings                : cabac=1 / ref=3 / deblock=1:0:0 / analyse=0x3:0x133 / me=umh / subme=9 / psy_rd=1.0:1.0 / mixed_ref=1 / me_range=16 / chroma_me=1 / trellis=1 / 8x8dct=1 / cqm=0 / deadzone=21,11 / chroma_qp_offset=-4 / threads=3 / nr=0 / decimate=1 / mbaff=0 / bframes=6 / b_pyramid=1 / b_adapt=1 / b_bias=0 / direct=3 / wpredb=1 / keyint=250 / keyint_min=25 / scenecut=40(pre) / rc=2pass / bitrate=655 / ratetol=1.0 / qcomp=0.60 / qpmin=10 / qpmax=51 / qpstep=4 / cplxblur=20.0 / qblur=0.5 / ip_ratio=1.40 / pb_ratio=1.30 / aq=1:1.00

Audio #1
ID                               : 2
Format                           : Vorbis
Format settings, Floor           : 1
Codec ID                         : A_VORBIS
Duration                         : 2h 19mn
Bit rate mode                    : Constant
Bit rate                         : 112 Kbps
Channel(s)                       : 2 channels, Dolby Surround ProLogic II
Sampling rate                    : 48.0 KHz
Stream size                      : 112 MiB (11%)
Writing library                  : aoTuV Beta 5 (UTC 2006-10-24)
Language                         : English

Audio #2
ID                               : 3
Format                           : Vorbis
Format settings, Floor           : 1
Codec ID                         : A_VORBIS
Duration                         : 2h 19mn
Bit rate mode                    : Constant
Bit rate                         : 112 Kbps
Channel(s)                       : 2 channels, Dolby Surround ProLogic II
Sampling rate                    : 48.0 KHz
Stream size                      : 112 MiB (11%)
Writing library                  : aoTuV Beta 5 (UTC 2006-10-24)
Language                         : German

Audio #3
ID                               : 4
Format                           : Vorbis
Format settings, Floor           : 1
Codec ID                         : A_VORBIS
Duration                         : 2h 19mn
Bit rate mode                    : Constant
Bit rate                         : 112 Kbps
Channel(s)                       : 2 channels, Dolby Surround ProLogic II
Sampling rate                    : 48.0 KHz
Stream size                      : 112 MiB (11%)
Writing library                  : aoTuV Beta 5 (UTC 2006-10-24)
Language                         : Spanish

Subs
German, English, Spanish, Swedish, Norwegian, Danish, Finnish, Portugese, Hebrew, Polish, Greek, Czech, Turkish, Hungarian, Icelandic, Croatian, French, Italian, German for the hearing impaired, English for the hearing impaired
--------------------------------------------------------------------

